HIERARCHY
ROOT hip
{
	OFFSET 0.000000 0.000000 0.000000 
	CHANNELS 6 Xposition Yposition Zposition Xrotation Zrotation Yrotation
	JOINT abdomen
	{
		OFFSET 0.000000 3.402643 0.000000 
		CHANNELS 3 Xrotation Zrotation Yrotation
		JOINT chest
		{
			OFFSET 0.000000 8.438565 -0.680529 
			CHANNELS 3 Xrotation Zrotation Yrotation
			JOINT neck
			{
				OFFSET 0.000000 10.207942 -0.272212 
				CHANNELS 3 Xrotation Zrotation Yrotation
				JOINT head
				{
					OFFSET 0.000000 3.130431 0.000000 
					CHANNELS 3 Xrotation Zrotation Yrotation
					End Site
					{
						OFFSET 0.000000 3.130435 0.000000 
					}
				}
			}
			JOINT lCollar
			{
				OFFSET 3.470700 6.669187 -0.816635 
				CHANNELS 3 Yrotation Zrotation Xrotation
				JOINT lShldr
				{
					OFFSET 3.198488 0.000000 0.000000 
					CHANNELS 3 Zrotation Yrotation Xrotation
					JOINT lForeArm
					{
						OFFSET 10.139888 0.000000 0.000000 
						CHANNELS 3 Yrotation Zrotation Xrotation
						JOINT lHand
						{
							OFFSET 8.370511 0.000000 0.000000 
							CHANNELS 3 Zrotation Yrotation Xrotation
							End Site
							{
								OFFSET 4.083176 0.000000 0.000000 
							}
						}
					}
				}
			}
			JOINT rCollar
			{
				OFFSET -3.470700 6.669187 -0.816635 
				CHANNELS 3 Yrotation Zrotation Xrotation
				JOINT rShldr
				{
					OFFSET -3.198488 0.000000 0.000000 
					CHANNELS 3 Zrotation Yrotation Xrotation
					JOINT rForeArm
					{
						OFFSET -10.139888 0.000000 0.000000 
						CHANNELS 3 Yrotation Zrotation Xrotation
						JOINT rHand
						{
							OFFSET -8.370511 0.000000 0.000000 
							CHANNELS 3 Zrotation Yrotation Xrotation
							End Site
							{
								OFFSET -4.083176 0.000000 0.000000 
							}
						}
					}
				}
			}
		}
	}
	JOINT lThigh
	{
		OFFSET 5.308129 -1.633274 1.361059 
		CHANNELS 3 Xrotation Zrotation Yrotation
		JOINT lShin
		{
			OFFSET -2.041588 -20.007561 0.000000 
			CHANNELS 3 Xrotation Zrotation Yrotation
			JOINT lFoot
			{
				OFFSET 0.000000 -19.190928 -1.224953 
				CHANNELS 3 Xrotation Yrotation Zrotation
				End Site
				{
					OFFSET 0.000000 -2.449906 4.627600 
				}
			}
		}
	}
	JOINT rThigh
	{
		OFFSET -5.308129 -1.633274 1.361059 
		CHANNELS 3 Xrotation Zrotation Yrotation
		JOINT rShin
		{
			OFFSET 2.041588 -20.007561 0.000000 
			CHANNELS 3 Xrotation Zrotation Yrotation
			JOINT rFoot
			{
				OFFSET 0.000000 -19.190928 -1.224953 
				CHANNELS 3 Xrotation Yrotation Zrotation
				End Site
				{
					OFFSET 0.000000 -2.449906 4.627600 
				}
			}
		}
	}
}
MOTION
Frames: 11
Frame Time: 0.016667
20.353754 51.738037 -147.936371 -6.312281 -1.101619 -3.360068 40.213562 2.554373 9.873957 2.583025 -1.116392 -9.288394 -2.864666 4.183985 -0.089249 17.882004 2.038624 2.775502 -16.798786 -7.027451 -0.285807 -66.668182 -28.951847 28.653896 -122.353348 5.000000 19.944378 -18.256067 -21.024038 -14.381489 10.770967 0.654762 -0.089633 77.581787 -35.104191 -45.000000 91.427223 5.000000 -0.712063 32.656269 -1.708221 -26.964529 9.163676 12.699610 7.136567 37.419216 -4.522747 -3.739828 -31.084881 7.813270 -3.924935 -33.695404 -2.791193 -16.212284 113.997711 -5.057419 10.260633 -1.838516 -13.673629 -0.333359 
18.973486 51.706879 -142.254654 -5.652147 -2.165348 -9.782732 39.282627 0.466881 11.165953 2.242089 0.261560 -10.869200 -2.100451 4.990871 -0.043138 18.866632 -0.811819 8.252781 -15.273478 -2.921674 -0.100915 -67.215225 -34.309822 29.945301 -130.653534 5.000000 29.419014 -17.645706 -20.138998 -18.870518 12.128305 -2.258527 0.080462 80.105179 -41.864414 -45.000000 96.702675 5.000000 -4.489396 30.101545 -1.877490 -30.371183 20.408747 12.636376 14.363309 31.270830 -5.090893 -3.401899 -32.044384 9.173188 -3.344820 -42.901855 2.920078 -9.250506 109.026955 -5.769640 14.211272 -4.384494 -19.187592 -0.255287 
17.549850 51.811665 -136.389465 -4.563011 -3.737620 -14.337947 37.804058 0.664168 11.387625 2.120037 1.595727 -12.034118 -0.707404 5.577089 0.047037 19.650305 -3.757594 12.438761 -13.387630 0.337255 0.067794 -65.915192 -36.486797 27.445515 -136.380768 5.000000 35.276192 -17.197941 -20.039719 -21.128515 13.940563 -5.034166 0.205696 82.278336 -47.623764 -45.000000 102.237740 5.000000 -8.732881 28.985584 -2.607135 -31.366291 29.300432 11.504134 20.089209 25.402046 -4.228015 -2.375467 -20.539936 8.771479 -5.456475 -48.464542 8.086213 -3.961494 100.776039 -4.148861 13.225750 -7.619394 -20.212042 -0.283128 
16.082829 52.052406 -130.340775 -3.042206 -5.845758 -17.074432 35.786716 3.065609 10.440681 2.226060 2.907831 -12.774565 1.295170 5.934419 0.191519 20.337595 -6.764462 15.333454 -11.118627 2.763779 0.212818 -62.754589 -35.298523 21.159792 -138.284378 5.000000 35.785835 -16.736912 -20.671318 -21.216070 16.215038 -7.677761 0.315719 83.613159 -50.000000 -45.000000 107.369324 5.000000 -12.422532 29.184223 -3.724552 -29.877266 35.831406 9.962164 24.281782 19.894009 -1.815096 -0.881589 3.090847 5.280327 -9.366525 -50.658695 12.000482 0.351082 89.059967 -1.318076 6.907653 -11.352450 -16.656246 0.069577 
14.615818 52.293152 -124.292068 -1.426480 -7.868492 -19.862823 33.716030 5.429904 9.405288 2.322381 4.216929 -13.500585 3.301867 6.284910 0.357728 20.885445 -9.796226 18.223516 -8.857566 5.187344 0.261298 -59.823605 -33.833164 15.059692 -140.126450 5.000000 36.137299 -16.266613 -21.309490 -21.305702 18.504288 -10.315585 0.541422 85.352997 -50.000000 -45.000000 112.387154 5.000000 -16.058651 29.353411 -4.854391 -28.387199 42.211739 7.980543 28.242884 14.438165 0.734541 0.396137 26.307590 0.312034 -11.435074 -52.575089 16.072857 4.581427 77.106087 0.138932 0.132982 -15.083998 -13.130506 0.679232 
13.579646 52.591961 -118.548035 -1.333928 -5.830622 -20.472540 32.625610 4.879959 7.391243 2.697489 4.133104 -13.049271 3.974570 6.459169 0.400095 20.987820 -10.214311 18.555046 -9.533525 5.636072 0.284486 -57.221466 -26.865963 9.404487 -134.950119 5.000000 26.483295 -19.112257 -18.338514 -19.991987 18.927328 -9.593920 0.504073 87.133118 -50.000000 -45.000000 111.542229 5.000000 -14.728092 27.827023 -5.710920 -26.719862 38.106579 6.623364 22.637455 28.497812 0.057636 0.019535 24.369127 -0.213236 -9.898405 -49.035206 13.013689 9.051924 63.663906 1.938841 2.827227 -14.326075 -13.687943 2.892757 
12.543477 52.890781 -112.803978 -1.265574 -3.791864 -21.064310 31.590725 4.291975 5.386153 3.062701 4.049160 -12.588943 4.647682 6.643074 0.442081 21.094933 -10.630475 18.889271 -10.209670 6.084800 0.307657 -55.501019 -19.720552 4.388466 -131.464050 5.000000 18.146683 -21.818647 -15.290838 -18.855354 19.350876 -8.872252 0.465139 88.778709 -50.000000 -45.000000 110.814629 5.000000 -13.501430 26.272156 -6.470166 -25.007065 34.165154 4.874297 17.169233 42.566509 -0.511887 -0.508256 22.387802 -0.779112 -8.387938 -45.802151 9.712375 13.269852 50.310875 4.305045 5.026899 -13.481604 -14.322488 5.094593 
11.413697 53.119789 -107.031731 -1.897001 -2.354084 -21.464424 31.434355 3.741888 3.948079 3.684630 3.997738 -11.590434 5.319826 6.806213 0.477408 20.864378 -11.119232 18.792435 -10.989955 5.712474 0.298096 -55.319950 -12.268781 -0.605091 -125.548737 5.000000 8.946280 -24.103254 -13.146510 -17.276646 18.665844 -6.921031 0.305493 86.139153 -50.000000 -45.000000 107.837379 5.000000 -11.074403 25.271610 -6.690081 -23.586882 30.027796 3.535766 14.720545 57.134716 -0.260187 0.628606 20.309828 -0.532652 -7.424262 -41.091743 6.396093 15.422974 40.426876 6.455623 5.945161 -12.002071 -15.179093 7.364961 
10.190305 53.278996 -101.231285 -3.218296 -1.533619 -21.687994 32.118595 3.315876 3.047490 4.545064 3.978019 -10.034935 5.992057 6.950034 0.515668 20.287609 -11.701054 18.282490 -11.873815 4.510907 0.244894 -56.678093 -4.658877 -5.897884 -117.544601 -0.439076 0.696571 -26.005129 -11.885115 -15.197439 16.894533 -3.745666 0.120682 80.663445 -44.265697 -45.000000 102.626518 5.000000 -7.569954 24.844543 -6.427463 -22.511061 25.527933 2.911828 15.206424 72.240189 0.129003 3.639177 18.059605 0.609877 -6.936882 -34.689091 3.229047 15.397818 33.903889 8.048884 5.849627 -9.900424 -16.167425 9.758842 
8.966916 53.438190 -95.430832 -4.539678 -0.706581 -21.935452 32.839050 2.909763 2.142733 5.416180 3.937304 -8.479424 6.654858 7.103501 0.552480 19.727816 -12.294471 17.772446 -12.747165 3.315506 0.163997 -58.726658 2.773461 -11.351838 -110.885635 -5.000000 -4.411088 -27.844927 -10.503420 -13.182020 15.125715 -0.563118 0.031441 76.463341 -37.373928 -45.000000 97.586380 5.000000 -4.351978 24.441746 -6.149172 -21.436110 21.033499 2.315145 15.745065 87.362946 -0.271636 6.629766 15.835346 1.761074 -6.406042 -28.317991 0.077420 15.009119 27.361422 9.602864 5.581891 -7.721579 -17.036795 12.213298 
7.609871 53.215099 -89.698898 -4.976075 -1.612647 -21.923347 33.362251 4.296161 2.242900 5.300900 4.118147 -7.072068 6.589776 5.707026 0.453914 20.528120 -12.989676 17.450537 -12.273979 0.635539 0.015778 -59.940170 8.709332 -16.871668 -99.727097 -5.000000 -3.382544 -27.333466 -9.580243 -4.310155 15.655306 2.699524 -0.118554 70.871437 -30.979532 -45.000000 93.098000 5.000000 -1.689680 24.964951 -3.670013 -19.323843 14.421740 4.501824 14.353765 99.745239 -2.343352 7.930803 12.623559 2.693660 -4.248627 -21.052736 -1.172227 9.200219 27.115168 9.284762 5.315770 -8.502154 -13.014005 7.865335 
